<svg width="19" height="19" viewBox="0 0 19 19" fill="none" xmlns="http://www.w3.org/2000/svg">
<rect width="19" height="19" rx="4.07143" fill="url(#paint0_radial_7_106)"/>
<rect width="19" height="19" rx="4.07143" fill="url(#paint1_radial_7_106)"/>
<rect width="19" height="19" rx="4.07143" fill="url(#paint2_radial_7_106)"/>
<path d="M14.2484 5.76817C14.2484 6.33032 13.7926 6.78603 13.2305 6.78603C12.6684 6.78603 12.2126 6.33032 12.2126 5.76817C12.2126 5.20602 12.6684 4.75031 13.2305 4.75031C13.7926 4.75031 14.2484 5.20602 14.2484 5.76817Z" fill="white"/>
<path fill-rule="evenodd" clip-rule="evenodd" d="M9.49836 12.8932C11.3722 12.8932 12.8912 11.3741 12.8912 9.50031C12.8912 7.62649 11.3722 6.10746 9.49836 6.10746C7.62454 6.10746 6.1055 7.62649 6.1055 9.50031C6.1055 11.3741 7.62454 12.8932 9.49836 12.8932ZM9.49836 11.536C10.6227 11.536 11.5341 10.6246 11.5341 9.50031C11.5341 8.37602 10.6227 7.4646 9.49836 7.4646C8.37407 7.4646 7.46265 8.37602 7.46265 9.50031C7.46265 10.6246 8.37407 11.536 9.49836 11.536Z" fill="white"/>
<path fill-rule="evenodd" clip-rule="evenodd" d="M2.71265 9.22889C2.71265 6.94867 2.71265 5.80856 3.15641 4.93764C3.54675 4.17155 4.1696 3.5487 4.93569 3.15836C5.80661 2.7146 6.94672 2.7146 9.22693 2.7146H9.76979C12.05 2.7146 13.1901 2.7146 14.061 3.15836C14.8271 3.5487 15.45 4.17155 15.8403 4.93764C16.2841 5.80856 16.2841 6.94867 16.2841 9.22889V9.77174C16.2841 12.052 16.2841 13.1921 15.8403 14.063C15.45 14.8291 14.8271 15.4519 14.061 15.8423C13.1901 16.286 12.05 16.286 9.76979 16.286H9.22693C6.94672 16.286 5.80661 16.286 4.93569 15.8423C4.1696 15.4519 3.54675 14.8291 3.15641 14.063C2.71265 13.1921 2.71265 12.052 2.71265 9.77174V9.22889ZM9.22693 4.07174H9.76979C10.9323 4.07174 11.7225 4.0728 12.3334 4.12271C12.9284 4.17132 13.2326 4.25943 13.4449 4.36758C13.9556 4.62781 14.3709 5.04304 14.6311 5.55377C14.7392 5.76602 14.8274 6.0703 14.876 6.66529C14.9259 7.27613 14.9269 8.06638 14.9269 9.22889V9.77174C14.9269 10.9342 14.9259 11.7245 14.876 12.3353C14.8274 12.9303 14.7392 13.2346 14.6311 13.4469C14.3709 13.9576 13.9556 14.3728 13.4449 14.633C13.2326 14.7412 12.9284 14.8293 12.3334 14.8779C11.7225 14.9278 10.9323 14.9289 9.76979 14.9289H9.22693C8.06443 14.9289 7.27418 14.9278 6.66334 14.8779C6.06835 14.8293 5.76407 14.7412 5.55182 14.633C5.04109 14.3728 4.62586 13.9576 4.36563 13.4469C4.25748 13.2346 4.16936 12.9303 4.12075 12.3353C4.07084 11.7245 4.06979 10.9342 4.06979 9.77174V9.22889C4.06979 8.06638 4.07084 7.27613 4.12075 6.66529C4.16936 6.0703 4.25748 5.76602 4.36563 5.55377C4.62586 5.04304 5.04109 4.62781 5.55182 4.36758C5.76407 4.25943 6.06835 4.17132 6.66334 4.12271C7.27418 4.0728 8.06443 4.07174 9.22693 4.07174Z" fill="white"/>
<defs>
<radialGradient id="paint0_radial_7_106" cx="0" cy="0" r="1" gradientUnits="userSpaceOnUse" gradientTransform="translate(6.78571 14.25) rotate(-55.3758) scale(17.3169)">
<stop stop-color="#B13589"/>
<stop offset="0.79309" stop-color="#C62F94"/>
<stop offset="1" stop-color="#8A3AC8"/>
</radialGradient>
<radialGradient id="paint1_radial_7_106" cx="0" cy="0" r="1" gradientUnits="userSpaceOnUse" gradientTransform="translate(6.10714 19.6786) rotate(-65.1363) scale(15.3318)">
<stop stop-color="#E0E8B7"/>
<stop offset="0.444662" stop-color="#FB8A2E"/>
<stop offset="0.71474" stop-color="#E2425C"/>
<stop offset="1" stop-color="#E2425C" stop-opacity="0"/>
</radialGradient>
<radialGradient id="paint2_radial_7_106" cx="0" cy="0" r="1" gradientUnits="userSpaceOnUse" gradientTransform="translate(-1.01786 0.678571) rotate(-8.1301) scale(26.3902 5.6446)">
<stop offset="0.156701" stop-color="#406ADC"/>
<stop offset="0.467799" stop-color="#6A45BE"/>
<stop offset="1" stop-color="#6A45BE" stop-opacity="0"/>
</radialGradient>
</defs>
</svg>
