<svg width="40" height="40" viewBox="0 0 40 40" fill="none" xmlns="http://www.w3.org/2000/svg">
<g clip-path="url(#clip0_1636_26507)">
<path d="M40 20C40 24.8895 38.2575 29.3368 35.3446 32.8218C31.6775 37.2172 26.1638 40 19.974 40C14.0442 40 8.73862 37.4252 5.07152 33.342C1.92458 29.8049 0 25.1235 0 20C0 8.94668 8.94668 0 20 0C31.0533 0 40 8.94668 40 20Z" fill="url(#paint0_linear_1636_26507)" fill-opacity="0.7"/>
<g filter="url(#filter0_dddd_1636_26507)">
<path d="M35.3688 35.8224C31.7017 40.2177 26.188 43.0005 19.9982 43.0005C14.0684 43.0005 8.7628 40.4257 5.0957 36.3425C5.71989 35.8484 6.50012 35.4062 7.46241 35.0161L8.19063 34.73C9.56905 34.1839 11.3636 33.5077 13.7823 32.4934C14.3285 32.2593 14.7706 31.8432 15.0047 31.297C15.1347 31.0109 15.2127 30.6728 15.2127 30.3347V25.8354C15.1347 25.7313 15.0567 25.6533 15.0047 25.5493C14.6146 24.9771 14.3545 24.3009 14.2765 23.5727L13.8863 23.3906C12.716 23.6767 12.794 22.4283 12.5079 20.0356C12.3779 19.0473 12.5339 18.8393 12.9761 18.6832L13.3402 18.1891C11.1035 13.1175 12.2218 9.94459 14.4325 8.82626C13.7043 7.21377 13.6523 6.6416 13.6523 6.6416C13.6523 6.6416 18.3597 7.42184 19.9982 7.10974C22.0528 6.69362 25.2257 7.18777 26.3961 9.91858C28.3467 10.6988 29.1269 11.9212 29.283 13.2736C29.569 15.4062 28.3467 17.7469 28.1126 18.6572C28.1386 18.7092 28.1646 18.7352 28.1646 18.7612C28.4767 18.9173 28.5807 19.1774 28.4767 20.0356C28.1906 22.2983 28.2687 23.7027 27.0983 23.3906L26.058 25.2112C26.006 25.4192 26.006 25.4973 25.98 25.6533C25.928 25.9914 25.954 26.6676 25.954 30.3867C25.954 30.8289 26.084 31.245 26.3181 31.6351C26.5781 32.0252 26.9423 32.3633 27.4104 32.5454C27.4104 32.5454 27.4364 32.5454 27.4624 32.5714C30.1412 33.6897 32.0658 34.4179 33.4702 34.9641C34.1984 35.1982 34.8226 35.5103 35.3688 35.8224Z" fill="white"/>
</g>
<path d="M28.163 18.6322C28.267 18.06 28.0069 17.3578 27.7989 16.8636C27.7729 16.7856 27.7208 16.7076 27.6948 16.6036C26.7846 14.783 24.782 14.0548 22.8574 13.9508C17.9419 13.6907 17.4998 14.627 15.9653 13.2226C16.4335 13.9508 16.4855 15.0691 15.7573 16.4735C15.2371 17.4618 14.2488 17.904 13.3906 18.19C11.1539 13.1185 12.2722 9.94557 14.4829 8.82723C13.7547 7.21475 13.7026 6.64258 13.7026 6.64258C13.7026 6.64258 18.4101 7.42281 20.0225 7.11072C22.0772 6.69459 25.2501 7.18874 26.4205 9.91956C28.371 10.6998 29.1253 11.9222 29.3073 13.2746C29.5934 15.3812 28.3971 17.6959 28.163 18.6322Z" fill="#1A1B1B"/>
<path d="M26.3693 31.583V32.4672H15.0039V31.3229C15.1339 31.0368 15.212 30.6987 15.212 30.3606V25.8352C15.1339 25.7312 15.0559 25.6532 15.0039 25.5491V25.2891C15.238 25.7052 15.5501 26.0953 15.9402 26.4074L19.5033 28.8781C20.3355 29.5804 21.5319 29.6064 22.3901 28.9302L25.7191 25.9393C25.8232 25.8352 25.9532 25.7312 26.0572 25.6272C26.0052 25.9653 26.0312 26.6415 26.0312 30.3606C26.0052 30.8027 26.1352 31.2449 26.3693 31.583Z" fill="url(#paint1_linear_1636_26507)"/>
</g>
<defs>
<filter id="filter0_dddd_1636_26507" x="-8.9043" y="4.6416" width="47.2734" height="62.3594" filterUnits="userSpaceOnUse" color-interpolation-filters="sRGB">
<feFlood flood-opacity="0" result="BackgroundImageFix"/>
<feColorMatrix in="SourceAlpha" type="matrix" values="0 0 0 0 0 0 0 0 0 0 0 0 0 0 0 0 0 0 127 0" result="hardAlpha"/>
<feOffset dy="1"/>
<feGaussianBlur stdDeviation="1.5"/>
<feColorMatrix type="matrix" values="0 0 0 0 0 0 0 0 0 0 0 0 0 0 0 0 0 0 0.1 0"/>
<feBlend mode="normal" in2="BackgroundImageFix" result="effect1_dropShadow_1636_26507"/>
<feColorMatrix in="SourceAlpha" type="matrix" values="0 0 0 0 0 0 0 0 0 0 0 0 0 0 0 0 0 0 127 0" result="hardAlpha"/>
<feOffset dx="-2" dy="4"/>
<feGaussianBlur stdDeviation="2.5"/>
<feColorMatrix type="matrix" values="0 0 0 0 0 0 0 0 0 0 0 0 0 0 0 0 0 0 0.09 0"/>
<feBlend mode="normal" in2="effect1_dropShadow_1636_26507" result="effect2_dropShadow_1636_26507"/>
<feColorMatrix in="SourceAlpha" type="matrix" values="0 0 0 0 0 0 0 0 0 0 0 0 0 0 0 0 0 0 127 0" result="hardAlpha"/>
<feOffset dx="-4" dy="9"/>
<feGaussianBlur stdDeviation="3"/>
<feColorMatrix type="matrix" values="0 0 0 0 0 0 0 0 0 0 0 0 0 0 0 0 0 0 0.05 0"/>
<feBlend mode="normal" in2="effect2_dropShadow_1636_26507" result="effect3_dropShadow_1636_26507"/>
<feColorMatrix in="SourceAlpha" type="matrix" values="0 0 0 0 0 0 0 0 0 0 0 0 0 0 0 0 0 0 127 0" result="hardAlpha"/>
<feOffset dx="-7" dy="17"/>
<feGaussianBlur stdDeviation="3.5"/>
<feColorMatrix type="matrix" values="0 0 0 0 0 0 0 0 0 0 0 0 0 0 0 0 0 0 0.01 0"/>
<feBlend mode="normal" in2="effect3_dropShadow_1636_26507" result="effect4_dropShadow_1636_26507"/>
<feBlend mode="normal" in="SourceGraphic" in2="effect4_dropShadow_1636_26507" result="shape"/>
</filter>
<linearGradient id="paint0_linear_1636_26507" x1="20" y1="0" x2="20" y2="40" gradientUnits="userSpaceOnUse">
<stop stop-color="#ECF7F9"/>
<stop offset="1" stop-color="#B0D5DC"/>
</linearGradient>
<linearGradient id="paint1_linear_1636_26507" x1="20.6866" y1="25.2891" x2="20.6866" y2="30.5" gradientUnits="userSpaceOnUse">
<stop stop-color="#A5B9BD"/>
<stop offset="1" stop-color="white"/>
</linearGradient>
<clipPath id="clip0_1636_26507">
<rect width="40" height="40" rx="20" fill="white"/>
</clipPath>
</defs>
</svg>
