<svg width="40" height="40" viewBox="0 0 40 40" fill="none" xmlns="http://www.w3.org/2000/svg">
<g clip-path="url(#clip0_1636_26530)">
<path d="M40 20C40 24.8895 38.2575 29.3368 35.3446 32.8218C31.6775 37.2172 26.1638 40 19.974 40C14.0442 40 8.73862 37.4252 5.07152 33.342C1.92458 29.8049 0 25.1235 0 20C0 8.94668 8.94668 0 20 0C31.0533 0 40 8.94668 40 20Z" fill="url(#paint0_linear_1636_26530)" fill-opacity="0.7"/>
<g filter="url(#filter0_dddd_1636_26530)">
<path d="M34.1673 36.6205C33.3604 34.7376 32.0155 33.1237 29.8636 32.0478C28.7877 31.5098 27.9807 31.2408 26.6358 31.2408H25.8288C23.946 31.2408 23.677 30.9719 23.677 30.9719V27.7441C25.8288 26.1302 27.4427 23.9783 27.9807 21.5575C29.3256 21.2885 30.1326 20.2125 29.8636 18.8676C29.8636 18.3296 29.3256 17.7917 29.3256 17.2537C29.3256 16.9847 29.3256 16.7157 29.3256 16.4468C29.3256 16.1778 29.3256 16.1778 29.3256 15.9088C29.3256 15.6398 29.3256 15.6398 29.3256 15.3708C29.3256 14.2949 29.0566 13.4879 28.2497 12.412C26.6358 9.45319 23.408 7.57031 19.9112 7.57031C19.1042 7.57031 18.5663 7.57031 17.7593 7.83929C16.4144 8.10828 15.3385 8.64625 14.2626 9.4532C13.9936 9.72218 13.9936 9.72217 13.7246 9.99116C13.7246 9.99116 13.7246 9.99116 13.4556 10.2601C12.3797 11.3361 11.5727 12.681 11.0348 14.0259C10.4968 15.3708 10.4968 16.9847 10.4968 18.5986C10.4968 18.5986 10.4968 18.5986 10.4968 18.8676C10.4968 19.1366 10.4968 19.1366 10.4968 19.4056C10.4968 19.4056 10.4968 19.6746 10.2278 19.6746C10.7658 19.1366 10.4968 19.9435 10.7658 20.4815C11.3037 21.8264 12.1107 21.5574 13.1866 22.3644C13.1866 22.3644 13.1866 22.3644 12.9176 22.3644L11.8417 22.6334C5.92406 24.5163 5.3861 30.7029 11.3037 32.0478C10.7658 32.3168 10.4968 32.5858 10.2278 32.5858C8.6139 33.9307 7.53797 35.5446 7 37.1585C10.4968 40.1173 15.0695 42.0002 20.1802 42.0002C25.2909 42.0002 30.1326 40.1173 33.6294 36.8895C33.8983 37.1585 34.1673 36.8895 34.1673 36.6205C34.4363 36.6205 34.4363 36.6205 34.1673 36.6205ZM17.4903 30.1649C17.2214 29.8959 16.9524 29.627 16.9524 29.627C16.6834 29.358 16.4144 29.358 16.1454 29.089C16.1454 29.089 15.8764 29.089 15.8764 28.82C15.0695 28.282 14.2625 27.7441 13.9936 26.9371C13.9936 26.6681 14.2625 26.1302 14.8005 25.5922C15.0695 25.8612 15.3385 26.1302 15.6075 26.6681C15.8765 26.9371 16.1454 27.2061 16.4144 27.4751C16.6834 27.4751 16.9524 27.7441 16.9524 28.013C16.9524 28.013 16.9524 28.013 17.2214 28.013C17.2214 28.013 17.2214 28.013 17.4903 28.013V30.1649Z" fill="white"/>
</g>
<path d="M26.1563 31.0868C25.891 32.1478 25.3605 32.9436 25.3605 32.9436L15.2812 31.3521L15.8117 28.6996C15.8117 28.6996 16.077 28.6996 16.077 28.9649C16.3422 29.2301 16.6075 29.2301 16.8727 29.4954C17.138 29.4954 17.138 29.7606 17.4032 30.0259V28.1692C17.4032 28.1692 17.4032 28.1692 17.138 28.1692C18.7294 28.9649 20.8514 29.4954 23.7691 27.6387V30.8216C24.0343 30.8216 24.2995 31.0868 26.1563 31.0868Z" fill="url(#paint1_linear_1636_26530)"/>
<path d="M24.0566 16.2926C25.9489 16.2926 27.8412 16.0222 29.4631 15.4816C29.4631 15.4816 29.4631 15.2113 29.7334 14.941C29.4631 14.13 29.1928 13.0487 28.6521 11.9674C27.0302 8.99384 23.7863 7.10156 20.2721 7.10156C19.4611 7.10156 18.6832 7.15939 17.5986 7.42972C16.1551 7.8709 15.4849 8.25861 15.143 8.46583C15.143 8.46583 14.3528 8.99716 13.7843 9.53448C13.2158 10.0718 11.8921 11.9674 11.3514 13.319C10.8108 14.941 10.3746 16.3195 10.6449 17.9415C10.9152 17.9415 11.3514 17.6442 11.6217 17.6442C13.7843 16.5629 15.4063 15.2113 16.2173 13.0487C18.3798 14.9409 21.0831 16.0222 24.0566 16.2926Z" fill="#1A1B1B"/>
<path d="M14.8828 25.8711C15.1481 26.1363 15.4133 26.4016 15.6785 26.6668C15.4133 26.4016 15.1481 26.1363 14.8828 25.8711Z" fill="#3973F4"/>
<path d="M18.5931 35.686C17.7974 36.747 16.4712 36.747 15.145 36.747C16.4712 35.4208 15.6755 31.4421 11.4316 31.9726C5.33094 30.9116 6.12667 24.5458 11.962 22.6891L13.023 22.4238C13.023 22.4238 13.023 22.4238 13.2883 22.6891C13.8188 24.0153 14.3492 24.811 15.145 25.872C12.7578 27.994 16.2059 28.5244 17.7974 30.1159C18.8584 30.6464 19.9194 34.0946 18.5931 35.686Z" fill="#1A1B1B"/>
</g>
<defs>
<filter id="filter0_dddd_1636_26530" x="-7" y="5.57031" width="44.3691" height="60.4297" filterUnits="userSpaceOnUse" color-interpolation-filters="sRGB">
<feFlood flood-opacity="0" result="BackgroundImageFix"/>
<feColorMatrix in="SourceAlpha" type="matrix" values="0 0 0 0 0 0 0 0 0 0 0 0 0 0 0 0 0 0 127 0" result="hardAlpha"/>
<feOffset dy="1"/>
<feGaussianBlur stdDeviation="1.5"/>
<feColorMatrix type="matrix" values="0 0 0 0 0 0 0 0 0 0 0 0 0 0 0 0 0 0 0.1 0"/>
<feBlend mode="normal" in2="BackgroundImageFix" result="effect1_dropShadow_1636_26530"/>
<feColorMatrix in="SourceAlpha" type="matrix" values="0 0 0 0 0 0 0 0 0 0 0 0 0 0 0 0 0 0 127 0" result="hardAlpha"/>
<feOffset dx="-2" dy="4"/>
<feGaussianBlur stdDeviation="2.5"/>
<feColorMatrix type="matrix" values="0 0 0 0 0 0 0 0 0 0 0 0 0 0 0 0 0 0 0.09 0"/>
<feBlend mode="normal" in2="effect1_dropShadow_1636_26530" result="effect2_dropShadow_1636_26530"/>
<feColorMatrix in="SourceAlpha" type="matrix" values="0 0 0 0 0 0 0 0 0 0 0 0 0 0 0 0 0 0 127 0" result="hardAlpha"/>
<feOffset dx="-4" dy="9"/>
<feGaussianBlur stdDeviation="3"/>
<feColorMatrix type="matrix" values="0 0 0 0 0 0 0 0 0 0 0 0 0 0 0 0 0 0 0.05 0"/>
<feBlend mode="normal" in2="effect2_dropShadow_1636_26530" result="effect3_dropShadow_1636_26530"/>
<feColorMatrix in="SourceAlpha" type="matrix" values="0 0 0 0 0 0 0 0 0 0 0 0 0 0 0 0 0 0 127 0" result="hardAlpha"/>
<feOffset dx="-7" dy="17"/>
<feGaussianBlur stdDeviation="3.5"/>
<feColorMatrix type="matrix" values="0 0 0 0 0 0 0 0 0 0 0 0 0 0 0 0 0 0 0.01 0"/>
<feBlend mode="normal" in2="effect3_dropShadow_1636_26530" result="effect4_dropShadow_1636_26530"/>
<feBlend mode="normal" in="SourceGraphic" in2="effect4_dropShadow_1636_26530" result="shape"/>
</filter>
<linearGradient id="paint0_linear_1636_26530" x1="20" y1="0" x2="20" y2="40" gradientUnits="userSpaceOnUse">
<stop stop-color="#ECF7F9"/>
<stop offset="1" stop-color="#B0D5DC"/>
</linearGradient>
<linearGradient id="paint1_linear_1636_26530" x1="20.7188" y1="27.6387" x2="20.7188" y2="31.4897" gradientUnits="userSpaceOnUse">
<stop stop-color="#A5B9BD"/>
<stop offset="1" stop-color="white"/>
</linearGradient>
<clipPath id="clip0_1636_26530">
<rect width="40" height="40" rx="20" fill="white"/>
</clipPath>
</defs>
</svg>
